<svg width="1024" height="1024" xmlns="http://www.w3.org/2000/svg" xmlns:svg="http://www.w3.org/2000/svg" class="icon" version="1.1">
 <g class="layer">
  <title>Layer 1</title>
  <g id="svg_8">
   <path d="m813.72,214.2c169.5,169.48 169.5,445.27 0,614.76c-169.47,169.5 -445.27,169.5 -614.76,0c-12.8,-12.8 -25.43,-27.48 -38.6,-44.91a19.07,19.07 0 0 1 -2.15,-19.39a19.19,19.19 0 0 1 16.02,-11.11c95.84,-6.49 185.82,-47.28 253.32,-114.79c139.4,-139.4 154.55,-362.97 35.2,-520.01a18.95,18.95 0 0 1 -2.17,-19.37a18.87,18.87 0 0 1 16.04,-11.15c125.65,-8.51 248.56,37.41 337.1,125.97" fill="#0099FF" id="svg_1"/>
   <path d="m813.72,214.2c-13.81,-13.85 -28.57,-26.5 -43.95,-38.2c146.7,170.59 139.35,428.86 -22.32,590.53c-118.16,118.17 -297.74,184.44 -447.2,137.85c58.21,34.44 136.62,46.17 162.05,49.44c125.52,12.68 255.49,-28.92 351.42,-124.86c169.5,-169.48 169.5,-445.27 0,-614.76" fill="#060404" id="svg_2"/>
   <path d="m926.37,632.8c4.17,-15.9 7.57,-31.97 9.91,-48.16l-144.4,0c-23.12,0 -41.87,-10.79 -41.87,-24.11c0,-13.29 18.75,-24.08 41.87,-24.08l5.58,0c23.12,0 41.89,-10.77 41.89,-24.08s-18.77,-24.08 -41.89,-24.08l-276.03,0c-6.37,18.51 -14.41,36.49 -23.55,54.01c8.98,4.41 14.81,10.91 14.81,18.24c0,12.93 -17.75,23.38 -39.95,23.97c-11.76,16.96 -25.12,33.03 -39.75,48.28l306.86,0l186.52,0z" fill="#060404" id="svg_3"/>
   <path d="m431.84,700.95c36.08,0 65.34,-6.28 65.34,-14.02c0,-7.77 -29.27,-14.05 -65.34,-14.05l-200.25,0c-36.08,0 -65.33,6.28 -65.33,14.05c0,7.74 29.25,14.02 65.33,14.02l200.25,0z" fill="#FFCC00" id="svg_4"/>
   <path d="m272.93,160.8c15.08,0 27.32,-3.6 27.32,-8.04c0,-4.45 -12.24,-8.04 -27.32,-8.04l-83.81,0c-15.08,0 -27.34,3.6 -27.34,8.04c0,4.45 12.24,8.04 27.34,8.04l83.81,0z" fill="#366DB5" id="svg_5"/>
   <path d="m574.19,296.52l61.05,0c11.79,0 21.33,4.69 21.33,10.45c0,5.78 -9.54,10.47 -21.33,10.47l-2.84,0c-11.76,0 -21.32,4.69 -21.32,10.47c0,5.77 9.56,10.45 21.32,10.45l131.27,0c11.77,0 21.32,4.69 21.32,10.47c0,5.78 -9.54,10.47 -21.32,10.47l-331.14,0c-11.76,0 -21.32,-4.69 -21.32,-10.47c0,-5.78 9.56,-10.47 21.32,-10.47l36.44,0c11.76,0 21.33,-4.69 21.33,-10.45c0,-5.78 -9.57,-10.47 -21.33,-10.47l-173.4,0c-11.77,0 -21.32,-4.69 -21.32,-10.47c0,-5.77 9.54,-10.45 21.32,-10.45l278.61,0zm336.71,-212.6l21.94,0c4.2,0 7.65,3.47 7.65,7.72c0,4.26 -3.44,7.71 -7.65,7.71l-1.03,0c-4.23,0 -7.65,3.44 -7.65,7.71c0,4.26 3.41,7.71 7.65,7.71l47.14,0c4.23,0 7.65,3.44 7.65,7.71c0,4.26 -3.41,7.71 -7.65,7.71l-118.92,0c-4.22,0 -7.65,-3.44 -7.65,-7.71c0,-4.26 3.43,-7.71 7.65,-7.71l13.08,0c4.23,0 7.66,-3.44 7.66,-7.71s-3.43,-7.71 -7.66,-7.71l-62.25,0c-4.22,0 -7.65,-3.44 -7.65,-7.71c0,-4.26 3.43,-7.72 7.65,-7.72l100.04,0z" fill="#FF3300" id="svg_6"/>
   <path d="m598.47,440.88l119.96,0c23.12,0 41.86,10.79 41.86,24.09c0,13.29 -18.74,24.08 -41.86,24.08l-5.6,0c-23.12,0 -41.87,10.77 -41.87,24.08c0,13.31 18.75,24.09 41.87,24.09l257.87,0c23.14,0 41.87,10.77 41.87,24.08c0,13.29 -18.74,24.08 -41.87,24.08l-650.49,0c-23.12,0 -41.87,-10.79 -41.87,-24.08c0,-13.31 18.74,-24.08 41.87,-24.08l71.55,0c23.12,0 41.9,-10.79 41.9,-24.09c0,-13.29 -18.78,-24.08 -41.9,-24.08l-340.6,0c-23.12,0 -41.87,-10.79 -41.87,-24.08c0,-13.31 18.75,-24.09 41.87,-24.09l547.3,0z" fill="#FFCC00" id="svg_7"/>
  </g>
 </g>
</svg>